<?xml version="1.0" encoding="UTF-8" standalone="no"?>
<!-- Created with Inkscape (http://www.inkscape.org/) -->

<svg
   xmlns:dc="http://purl.org/dc/elements/1.1/"
   xmlns:cc="http://creativecommons.org/ns#"
   xmlns:rdf="http://www.w3.org/1999/02/22-rdf-syntax-ns#"
   xmlns:svg="http://www.w3.org/2000/svg"
   xmlns="http://www.w3.org/2000/svg"
   xmlns:sodipodi="http://sodipodi.sourceforge.net/DTD/sodipodi-0.dtd"
   xmlns:inkscape="http://www.inkscape.org/namespaces/inkscape"
   width="124.33033mm"
   height="98.3964mm"
   viewBox="0 0 440.54054 348.64866"
   id="svg2"
   version="1.1"
   inkscape:version="0.91 r13725"
   sodipodi:docname="logo.svg">
  <defs
     id="defs4" />
  <sodipodi:namedview
     id="base"
     pagecolor="#ffffff"
     bordercolor="#666666"
     borderopacity="1.0"
     inkscape:pageopacity="0.0"
     inkscape:pageshadow="2"
     inkscape:zoom="1.11"
     inkscape:cx="242.86691"
     inkscape:cy="246.2986"
     inkscape:document-units="px"
     inkscape:current-layer="layer1"
     showgrid="false"
     fit-margin-top="0"
     fit-margin-left="0"
     fit-margin-right="0"
     fit-margin-bottom="0"
     inkscape:window-width="1366"
     inkscape:window-height="705"
     inkscape:window-x="-8"
     inkscape:window-y="-8"
     inkscape:window-maximized="1" />
  <metadata
     id="metadata7">
    <rdf:RDF>
      <cc:Work
         rdf:about="">
        <dc:format>image/svg+xml</dc:format>
        <dc:type
           rdf:resource="http://purl.org/dc/dcmitype/StillImage" />
        <dc:title></dc:title>
      </cc:Work>
    </rdf:RDF>
  </metadata>
  <g
     inkscape:label="Ebene 1"
     inkscape:groupmode="layer"
     id="layer1"
     transform="translate(-153.15315,-282.99283)">
    <rect
       style="opacity:1;fill:#000098;fill-opacity:1;stroke:none;stroke-width:2.4000001;stroke-miterlimit:4;stroke-dasharray:none;stroke-dashoffset:0;stroke-opacity:0.29803922"
       id="rect4290"
       width="440.54053"
       height="348.64865"
       x="153.15315"
       y="282.99283" />
    <path
       style="fill:#00b800;fill-opacity:1;fill-rule:evenodd;stroke:#000000;stroke-width:1px;stroke-linecap:butt;stroke-linejoin:miter;stroke-opacity:1"
       d="m 314.74104,439.21479 0.3984,-46.61354 1.48028,-4.4644 3.66197,-5.07042 3.38028,-3.09859 3.94366,-2.53521 3.0986,-1.69014 3.94366,-1.12676 4.22535,-0.56338 6.47887,-0.28169 3.94366,-3.66198 4.50705,-1.97183 8.16901,-1.97183 5.91549,-0.56338 c 0,0 13.23944,0 14.3662,0 1.12676,0 7.60563,1.69014 7.60563,1.69014 0,0 4.78874,1.40845 5.9155,1.69014 1.12676,0.28169 5.35211,3.09859 5.35211,3.09859 l 3.09859,2.81691 4.50704,0 5.35212,0.84507 6.47887,2.25352 3.94366,2.8169 4.78873,4.78873 3.66198,6.19718 0.56338,3.38029 -0.28169,90.14084 -2.25352,6.76056 -2.53522,4.50705 -4.78873,4.50704 -4.78873,2.53521 -5.91549,1.40845 -76.90141,0.28169 -7.88733,-2.25352 -5.35211,-3.38028 -5.35211,-5.07042 -2.8169,-7.04226 z"
       id="path4147"
       inkscape:connector-curvature="0" />
    <path
       style="fill:#000000;fill-opacity:1;fill-rule:evenodd;stroke:#000000;stroke-width:1px;stroke-linecap:butt;stroke-linejoin:miter;stroke-opacity:1"
       d="m 313.23944,533.48897 22.53521,-28.45071 77.1831,-0.28169 21.40845,30.14085 -17.1831,0 -12.95775,-17.74648 -59.71831,0 -12.39436,17.1831 z"
       id="path4149"
       inkscape:connector-curvature="0" />
    <ellipse
       style="opacity:1;fill:#ffffff;fill-opacity:1;stroke:#000000;stroke-width:3.01070833;stroke-miterlimit:4;stroke-dasharray:none;stroke-dashoffset:0;stroke-opacity:0.29803922"
       id="path4151"
       cx="335.63382"
       cy="482.22137"
       rx="12.441541"
       ry="12.089012" />
    <ellipse
       style="opacity:1;fill:#ffffff;fill-opacity:1;stroke:#000000;stroke-width:3.01070833;stroke-miterlimit:4;stroke-dasharray:none;stroke-dashoffset:0;stroke-opacity:0.29803922"
       id="path4151-9"
       cx="411.83099"
       cy="481.0946"
       rx="12.441541"
       ry="12.089012" />
    <rect
       style="opacity:1;fill:#ffffff;fill-opacity:1;stroke:#000000;stroke-width:2.4000001;stroke-miterlimit:4;stroke-dasharray:none;stroke-dashoffset:0;stroke-opacity:0.29803922"
       id="rect4168"
       width="91.267609"
       height="49.859154"
       x="329.57745"
       y="410.10867" />
    <rect
       style="opacity:1;fill:#ffffff;fill-opacity:1;stroke:#000000;stroke-width:2.4000001;stroke-miterlimit:4;stroke-dasharray:none;stroke-dashoffset:0;stroke-opacity:0.29803922"
       id="rect4170"
       width="57.46479"
       height="16.056337"
       x="345.9155"
       y="384.47488" />
    <path
       sodipodi:type="star"
       style="opacity:1;fill:#f3e600;fill-opacity:1;stroke:none;stroke-width:2.59037638;stroke-miterlimit:4;stroke-dasharray:none;stroke-dashoffset:0;stroke-opacity:0.29803922"
       id="path4192"
       sodipodi:sides="5"
       sodipodi:cx="372.07208"
       sodipodi:cy="328.03787"
       sodipodi:r1="21.589973"
       sodipodi:r2="10.794986"
       sodipodi:arg1="0.94531129"
       sodipodi:arg2="1.5736298"
       inkscape:flatsided="false"
       inkscape:rounded="0"
       inkscape:randomized="0"
       d="m 384.71281,345.54042 -12.67131,-6.70761 -12.70913,6.63569 2.46366,-14.1239 -10.23825,-10.03655 14.19394,-2.02145 6.38154,-12.83861 6.30868,12.87457 14.18225,2.10185 -10.29496,9.97837 z"
       inkscape:transform-center-x="-0.018904086"
       inkscape:transform-center-y="-2.0436719" />
    <path
       sodipodi:type="star"
       style="opacity:1;fill:#f3e600;fill-opacity:1;stroke:none;stroke-width:2.59037638;stroke-miterlimit:4;stroke-dasharray:none;stroke-dashoffset:0;stroke-opacity:0.29803922"
       id="path4192-8"
       sodipodi:sides="5"
       sodipodi:cx="436.01715"
       sodipodi:cy="345.39685"
       sodipodi:r1="21.589973"
       sodipodi:r2="10.794986"
       sodipodi:arg1="0.94531129"
       sodipodi:arg2="1.5736298"
       inkscape:flatsided="false"
       inkscape:rounded="0"
       inkscape:randomized="0"
       d="m 448.65788,362.89939 -12.67132,-6.7076 -12.70912,6.63569 2.46366,-14.1239 -10.23825,-10.03655 14.19394,-2.02145 6.38154,-12.83862 6.30867,12.87458 14.18226,2.10185 -10.29496,9.97837 z"
       inkscape:transform-center-x="-0.018904086"
       inkscape:transform-center-y="-2.0436719" />
    <path
       sodipodi:type="star"
       style="opacity:1;fill:#f3e600;fill-opacity:1;stroke:none;stroke-width:2.59037638;stroke-miterlimit:4;stroke-dasharray:none;stroke-dashoffset:0;stroke-opacity:0.29803922"
       id="path4192-5"
       sodipodi:sides="5"
       sodipodi:cx="483.76489"
       sodipodi:cy="393.14462"
       sodipodi:r1="21.589973"
       sodipodi:r2="10.794986"
       sodipodi:arg1="0.94531129"
       sodipodi:arg2="1.5736298"
       inkscape:flatsided="false"
       inkscape:rounded="0"
       inkscape:randomized="0"
       d="m 496.40562,410.64717 -12.67131,-6.7076 -12.70913,6.63568 2.46366,-14.1239 -10.23825,-10.03655 14.19394,-2.02145 6.38154,-12.83861 6.30868,12.87457 14.18225,2.10185 -10.29496,9.97837 z"
       inkscape:transform-center-x="-0.018904086"
       inkscape:transform-center-y="-2.0436719" />
    <path
       sodipodi:type="star"
       style="opacity:1;fill:#f3e600;fill-opacity:1;stroke:none;stroke-width:2.59037638;stroke-miterlimit:4;stroke-dasharray:none;stroke-dashoffset:0;stroke-opacity:0.29803922"
       id="path4192-4"
       sodipodi:sides="5"
       sodipodi:cx="499.0802"
       sodipodi:cy="457.10858"
       sodipodi:r1="21.589973"
       sodipodi:r2="10.794986"
       sodipodi:arg1="0.94531129"
       sodipodi:arg2="1.5736298"
       inkscape:flatsided="false"
       inkscape:rounded="0"
       inkscape:randomized="0"
       d="m 511.72093,474.61112 -12.67132,-6.7076 -12.70912,6.63569 2.46366,-14.1239 -10.23825,-10.03655 14.19394,-2.02145 6.38154,-12.83862 6.30867,12.87458 14.18226,2.10185 -10.29496,9.97837 z"
       inkscape:transform-center-x="-0.018904086"
       inkscape:transform-center-y="-2.0436719" />
    <path
       sodipodi:type="star"
       style="opacity:1;fill:#f3e600;fill-opacity:1;stroke:none;stroke-width:2.59037638;stroke-miterlimit:4;stroke-dasharray:none;stroke-dashoffset:0;stroke-opacity:0.29803922"
       id="path4192-1"
       sodipodi:sides="5"
       sodipodi:cx="498.17929"
       sodipodi:cy="458.00949"
       sodipodi:r1="21.589973"
       sodipodi:r2="10.794986"
       sodipodi:arg1="0.94531129"
       sodipodi:arg2="1.5736298"
       inkscape:flatsided="false"
       inkscape:rounded="0"
       inkscape:randomized="0"
       d="m 510.82002,475.51203 -12.67132,-6.7076 -12.70912,6.63569 2.46366,-14.1239 -10.23825,-10.03655 14.19394,-2.02145 6.38154,-12.83862 6.30867,12.87458 14.18226,2.10185 -10.29496,9.97837 z"
       inkscape:transform-center-x="-0.018904086"
       inkscape:transform-center-y="-2.0436719" />
    <path
       sodipodi:type="star"
       style="opacity:1;fill:#f3e600;fill-opacity:1;stroke:none;stroke-width:2.59037638;stroke-miterlimit:4;stroke-dasharray:none;stroke-dashoffset:0;stroke-opacity:0.29803922"
       id="path4192-0"
       sodipodi:sides="5"
       sodipodi:cx="481.96304"
       sodipodi:cy="521.97345"
       sodipodi:r1="21.589973"
       sodipodi:r2="10.794986"
       sodipodi:arg1="0.94531129"
       sodipodi:arg2="1.5736298"
       inkscape:flatsided="false"
       inkscape:rounded="0"
       inkscape:randomized="0"
       d="m 494.60377,539.47599 -12.67131,-6.7076 -12.70913,6.63569 2.46366,-14.1239 -10.23825,-10.03655 14.19394,-2.02145 6.38154,-12.83862 6.30868,12.87458 14.18225,2.10185 -10.29496,9.97837 z"
       inkscape:transform-center-x="-0.018904086"
       inkscape:transform-center-y="-2.0436719" />
    <path
       sodipodi:type="star"
       style="opacity:1;fill:#f3e600;fill-opacity:1;stroke:none;stroke-width:2.59037638;stroke-miterlimit:4;stroke-dasharray:none;stroke-dashoffset:0;stroke-opacity:0.29803922"
       id="path4192-10"
       sodipodi:sides="5"
       sodipodi:cx="436.01718"
       sodipodi:cy="567.01849"
       sodipodi:r1="21.589973"
       sodipodi:r2="10.794986"
       sodipodi:arg1="0.94531129"
       sodipodi:arg2="1.5736298"
       inkscape:flatsided="false"
       inkscape:rounded="0"
       inkscape:randomized="0"
       d="m 448.65791,584.52104 -12.67132,-6.7076 -12.70912,6.63568 2.46366,-14.1239 -10.23825,-10.03655 14.19394,-2.02145 6.38154,-12.83861 6.30867,12.87457 14.18226,2.10185 -10.29496,9.97837 z"
       inkscape:transform-center-x="-0.018904086"
       inkscape:transform-center-y="-2.0436719" />
    <path
       sodipodi:type="star"
       style="opacity:1;fill:#f3e600;fill-opacity:1;stroke:none;stroke-width:2.59037638;stroke-miterlimit:4;stroke-dasharray:none;stroke-dashoffset:0;stroke-opacity:0.29803922"
       id="path4192-11"
       sodipodi:sides="5"
       sodipodi:cx="372.05316"
       sodipodi:cy="586.83826"
       sodipodi:r1="21.589973"
       sodipodi:r2="10.794986"
       sodipodi:arg1="0.94531129"
       sodipodi:arg2="1.5736298"
       inkscape:flatsided="false"
       inkscape:rounded="0"
       inkscape:randomized="0"
       d="m 384.69389,604.3408 -12.67132,-6.7076 -12.70912,6.63568 2.46366,-14.12389 -10.23825,-10.03656 14.19394,-2.02144 6.38154,-12.83862 6.30868,12.87457 14.18225,2.10186 -10.29496,9.97837 z"
       inkscape:transform-center-x="-0.018904086"
       inkscape:transform-center-y="-2.0436719" />
    <path
       sodipodi:type="star"
       style="opacity:1;fill:#f3e600;fill-opacity:1;stroke:none;stroke-width:2.59037638;stroke-miterlimit:4;stroke-dasharray:none;stroke-dashoffset:0;stroke-opacity:0.29803922"
       id="path4192-6"
       sodipodi:sides="5"
       sodipodi:cx="308.0892"
       sodipodi:cy="569.72119"
       sodipodi:r1="21.589973"
       sodipodi:r2="10.794986"
       sodipodi:arg1="0.94531129"
       sodipodi:arg2="1.5736298"
       inkscape:flatsided="false"
       inkscape:rounded="0"
       inkscape:randomized="0"
       d="m 320.72993,587.22373 -12.67131,-6.7076 -12.70913,6.63569 2.46366,-14.1239 -10.23825,-10.03655 14.19394,-2.02145 6.38154,-12.83862 6.30868,12.87458 14.18225,2.10185 -10.29496,9.97837 z"
       inkscape:transform-center-x="-0.018904086"
       inkscape:transform-center-y="-2.0436719" />
    <path
       sodipodi:type="star"
       style="opacity:1;fill:#f3e600;fill-opacity:1;stroke:none;stroke-width:2.59037638;stroke-miterlimit:4;stroke-dasharray:none;stroke-dashoffset:0;stroke-opacity:0.29803922"
       id="path4192-83"
       sodipodi:sides="5"
       sodipodi:cx="261.24237"
       sodipodi:cy="521.07257"
       sodipodi:r1="21.589973"
       sodipodi:r2="10.794986"
       sodipodi:arg1="0.94531129"
       sodipodi:arg2="1.5736298"
       inkscape:flatsided="false"
       inkscape:rounded="0"
       inkscape:randomized="0"
       d="m 273.8831,538.57511 -12.67132,-6.7076 -12.70912,6.63569 2.46366,-14.1239 -10.23825,-10.03655 14.19394,-2.02145 6.38154,-12.83862 6.30867,12.87458 14.18226,2.10185 -10.29496,9.97837 z"
       inkscape:transform-center-x="-0.018904086"
       inkscape:transform-center-y="-2.0436719" />
    <path
       sodipodi:type="star"
       style="opacity:1;fill:#f3e600;fill-opacity:1;stroke:none;stroke-width:2.59037638;stroke-miterlimit:4;stroke-dasharray:none;stroke-dashoffset:0;stroke-opacity:0.29803922"
       id="path4192-3"
       sodipodi:sides="5"
       sodipodi:cx="244.12524"
       sodipodi:cy="456.2077"
       sodipodi:r1="21.589973"
       sodipodi:r2="10.794986"
       sodipodi:arg1="0.94531129"
       sodipodi:arg2="1.5736298"
       inkscape:flatsided="false"
       inkscape:rounded="0"
       inkscape:randomized="0"
       d="m 256.76597,473.71025 -12.67131,-6.7076 -12.70912,6.63568 2.46365,-14.1239 -10.23824,-10.03655 14.19393,-2.02145 6.38154,-12.83861 6.30868,12.87457 14.18225,2.10185 -10.29496,9.97837 z"
       inkscape:transform-center-x="-0.018904086"
       inkscape:transform-center-y="-2.0436719" />
    <path
       sodipodi:type="star"
       style="opacity:1;fill:#f3e600;fill-opacity:1;stroke:none;stroke-width:2.59037638;stroke-miterlimit:4;stroke-dasharray:none;stroke-dashoffset:0;stroke-opacity:0.29803922"
       id="path4192-51"
       sodipodi:sides="5"
       sodipodi:cx="260.34146"
       sodipodi:cy="393.14462"
       sodipodi:r1="21.589973"
       sodipodi:r2="10.794986"
       sodipodi:arg1="0.94531129"
       sodipodi:arg2="1.5736298"
       inkscape:flatsided="false"
       inkscape:rounded="0"
       inkscape:randomized="0"
       d="m 272.98219,410.64717 -12.67132,-6.7076 -12.70912,6.63568 2.46366,-14.1239 -10.23825,-10.03655 14.19394,-2.02145 6.38154,-12.83861 6.30867,12.87457 14.18226,2.10185 -10.29496,9.97837 z"
       inkscape:transform-center-x="-0.018904086"
       inkscape:transform-center-y="-2.0436719" />
    <path
       sodipodi:type="star"
       style="opacity:1;fill:#f3e600;fill-opacity:1;stroke:none;stroke-width:2.59037638;stroke-miterlimit:4;stroke-dasharray:none;stroke-dashoffset:0;stroke-opacity:0.29803922"
       id="path4192-7"
       sodipodi:sides="5"
       sodipodi:cx="307.18832"
       sodipodi:cy="345.39688"
       sodipodi:r1="21.589973"
       sodipodi:r2="10.794986"
       sodipodi:arg1="0.94531129"
       sodipodi:arg2="1.5736298"
       inkscape:flatsided="false"
       inkscape:rounded="0"
       inkscape:randomized="0"
       d="m 319.82905,362.89942 -12.67131,-6.7076 -12.70912,6.63569 2.46365,-14.1239 -10.23824,-10.03655 14.19393,-2.02145 6.38154,-12.83862 6.30868,12.87458 14.18225,2.10185 -10.29496,9.97837 z"
       inkscape:transform-center-x="-0.018904086"
       inkscape:transform-center-y="-2.0436719" />
  </g>
</svg>
